# Blender v2.90.1 OBJ File: 'cpmplex.blend'
# www.blender.org
mtllib base.mtl
o 立方体.027_立方体.005
v -0.015000 -0.015000 -0.020000
v -0.015000 -0.015000 -0.000000
v -0.015000 0.015000 -0.020000
v -0.015000 0.015000 -0.000000
v 0.015000 -0.015000 -0.020000
v 0.015000 -0.015000 -0.000000
v 0.015000 0.015000 -0.020000
v 0.015000 0.015000 -0.000000
v -0.006000 0.007000 -0.000000
v -0.006000 0.007000 -0.020000
v 0.006000 0.007000 -0.000000
v 0.006000 0.007000 -0.020000
v 0.010000 -0.007000 -0.000000
v 0.010000 -0.007000 -0.020000
v -0.010000 -0.007000 -0.000000
v -0.010000 -0.007000 -0.020000
vt 0.625000 0.000000
vt 0.375000 0.250000
vt 0.375000 0.000000
vt 0.625000 0.250000
vt 0.375000 0.500000
vt 0.625000 0.500000
vt 0.375000 0.750000
vt 0.625000 0.750000
vt 0.375000 1.000000
vt 0.125000 0.500000
vt 0.200000 0.566667
vt 0.875000 0.500000
vt 0.700000 0.566667
vt 0.541667 0.750000
vt 0.458333 0.500000
vt 0.458333 0.750000
vt 0.541667 0.500000
vt 0.458333 0.250000
vt 0.833333 0.683333
vt 0.875000 0.750000
vt 0.541667 0.250000
vt 0.458333 0.000000
vt 0.541667 1.000000
vt 0.458333 1.000000
vt 0.166667 0.683333
vt 0.125000 0.750000
vt 0.625000 1.000000
vt 0.333333 0.683333
vt 0.300000 0.566667
vt 0.800000 0.566667
vt 0.666667 0.683333
vt 0.541667 0.000000
vn -1.0000 0.0000 0.0000
vn 0.0000 1.0000 0.0000
vn 1.0000 0.0000 0.0000
vn 0.0000 -1.0000 0.0000
vn 0.0000 0.0000 -1.0000
vn 0.0000 -0.0000 1.0000
vn -0.9615 -0.2747 -0.0000
vn 0.9615 -0.2747 -0.0000
usemtl None
s off
f 2/1/1 3/2/1 1/3/1
f 4/4/2 7/5/2 3/2/2
f 8/6/3 5/7/3 7/5/3
f 6/8/4 1/9/4 5/7/4
f 3/10/5 7/5/5 10/11/5
f 8/6/6 4/12/6 11/13/6
f 13/14/7 12/15/7 14/16/7
f 11/17/4 10/18/4 12/15/4
f 6/8/6 15/19/6 2/20/6
f 9/21/8 16/22/8 10/18/8
f 15/23/2 14/16/2 16/24/2
f 16/25/5 5/7/5 1/26/5
f 2/1/1 4/4/1 3/2/1
f 4/4/2 8/6/2 7/5/2
f 8/6/3 6/8/3 5/7/3
f 6/8/4 2/27/4 1/9/4
f 7/5/5 5/7/5 14/28/5
f 7/5/5 14/28/5 12/29/5
f 16/25/5 1/26/5 3/10/5
f 7/5/5 12/29/5 10/11/5
f 10/11/5 16/25/5 3/10/5
f 4/12/6 2/20/6 15/19/6
f 4/12/6 15/19/6 9/30/6
f 13/31/6 6/8/6 8/6/6
f 4/12/6 9/30/6 11/13/6
f 11/13/6 13/31/6 8/6/6
f 13/14/7 11/17/7 12/15/7
f 11/17/4 9/21/4 10/18/4
f 6/8/6 13/31/6 15/19/6
f 9/21/8 15/32/8 16/22/8
f 15/23/2 13/14/2 14/16/2
f 16/25/5 14/28/5 5/7/5
