# Blender v2.90.1 OBJ File: 'cpmplex.blend'
# www.blender.org
mtllib mask.mtl
o 柱体.006_柱体.014
v 0.003827 0.007188 -0.000190
v 0.003827 0.007188 -0.000170
v 0.005556 0.006264 -0.000190
v 0.005556 0.006264 -0.000170
v 0.007071 0.005021 -0.000190
v 0.007071 0.005021 -0.000170
v 0.008315 0.003505 -0.000190
v 0.008315 0.003505 -0.000170
v 0.009239 0.001776 -0.000190
v 0.009239 0.001776 -0.000170
v 0.009808 -0.000100 -0.000190
v 0.009808 -0.000100 -0.000170
v 0.010000 -0.002051 -0.000190
v 0.010000 -0.002051 -0.000170
v 0.009808 -0.004001 -0.000190
v 0.009808 -0.004001 -0.000170
v 0.009239 -0.005877 -0.000190
v 0.009239 -0.005877 -0.000170
v 0.008315 -0.007606 -0.000190
v 0.008315 -0.007606 -0.000170
v 0.007071 -0.009122 -0.000190
v 0.007071 -0.009122 -0.000170
v 0.005556 -0.010365 -0.000190
v 0.005556 -0.010365 -0.000170
v 0.003827 -0.011289 -0.000190
v 0.003827 -0.011289 -0.000170
v 0.001951 -0.011858 -0.000190
v 0.001951 -0.011858 -0.000170
v -0.000000 -0.012051 -0.000190
v -0.000000 -0.012051 -0.000170
v -0.001951 -0.011858 -0.000190
v -0.001951 -0.011858 -0.000170
v -0.003827 -0.011289 -0.000190
v -0.003827 -0.011289 -0.000170
v -0.005556 -0.010365 -0.000190
v -0.005556 -0.010365 -0.000170
v -0.007071 -0.009122 -0.000190
v -0.007071 -0.009122 -0.000170
v -0.008315 -0.007606 -0.000190
v -0.008315 -0.007606 -0.000170
v -0.009239 -0.005877 -0.000190
v -0.009239 -0.005877 -0.000170
v -0.009808 -0.004001 -0.000190
v -0.009808 -0.004001 -0.000170
v -0.010000 -0.002051 -0.000190
v -0.010000 -0.002051 -0.000170
v -0.009808 -0.000100 -0.000190
v -0.009808 -0.000100 -0.000170
v -0.009239 0.001776 -0.000190
v -0.009239 0.001776 -0.000170
v -0.008315 0.003505 -0.000190
v -0.008315 0.003505 -0.000170
v -0.007071 0.005021 -0.000190
v -0.007071 0.005021 -0.000170
v -0.005556 0.006264 -0.000190
v -0.005556 0.006264 -0.000170
v -0.003827 0.007188 -0.000190
v -0.003827 0.007188 -0.000170
v 0.002000 0.008000 -0.000190
v 0.002000 0.008000 -0.000170
v 0.002000 0.005000 -0.000170
v 0.002000 0.005000 -0.000190
v -0.002000 0.008000 -0.000170
v -0.002000 0.008000 -0.000190
v -0.002000 0.005000 -0.000170
v -0.002000 0.005000 -0.000190
vt 0.937500 1.000000
vt 0.906250 0.500000
vt 0.937500 0.500000
vt 0.906250 1.000000
vt 0.875000 0.500000
vt 0.875000 1.000000
vt 0.843750 0.500000
vt 0.843750 1.000000
vt 0.812500 0.500000
vt 0.812500 1.000000
vt 0.781250 0.500000
vt 0.781250 1.000000
vt 0.750000 0.500000
vt 0.750000 1.000000
vt 0.718750 0.500000
vt 0.718750 1.000000
vt 0.687500 0.500000
vt 0.687500 1.000000
vt 0.656250 0.500000
vt 0.656250 1.000000
vt 0.625000 0.500000
vt 0.625000 1.000000
vt 0.593750 0.500000
vt 0.593750 1.000000
vt 0.562500 0.500000
vt 0.562500 1.000000
vt 0.531250 0.500000
vt 0.531250 1.000000
vt 0.500000 0.500000
vt 0.500000 1.000000
vt 0.468750 0.500000
vt 0.468750 1.000000
vt 0.437500 0.500000
vt 0.437500 1.000000
vt 0.406250 0.500000
vt 0.406250 1.000000
vt 0.375000 0.500000
vt 0.375000 1.000000
vt 0.343750 0.500000
vt 0.343750 1.000000
vt 0.312500 0.500000
vt 0.312500 1.000000
vt 0.281250 0.500000
vt 0.281250 1.000000
vt 0.250000 0.500000
vt 0.250000 1.000000
vt 0.218750 0.500000
vt 0.218750 1.000000
vt 0.187500 0.500000
vt 0.187500 1.000000
vt 0.156250 0.500000
vt 0.156250 1.000000
vt 0.125000 0.500000
vt 0.125000 1.000000
vt 0.093750 0.500000
vt 0.093750 1.000000
vt 0.062500 0.500000
vt 0.062500 1.000000
vt 0.047114 0.500000
vt 0.593750 0.750000
vt 0.406250 0.631822
vt 0.406250 0.750000
vt 0.971731 0.341844
vt 0.985388 0.296822
vt 0.819677 0.412581
vt 0.406250 0.000000
vt 0.593750 0.118178
vt 0.593750 0.000000
vt 0.028269 0.341844
vt 0.014612 0.296822
vt 0.180323 0.412581
vt 0.952886 1.000000
vt 0.952886 0.500000
vt 0.593750 1.000000
vt 0.406250 1.000000
vt 0.047114 1.000000
vt 0.593750 0.631822
vt 0.658156 0.471731
vt 0.680323 0.478455
vt 0.680323 0.412581
vt 0.819677 0.478455
vt 0.841844 0.471731
vt 0.616663 0.449553
vt 0.883337 0.449553
vt 0.580295 0.419706
vt 0.919706 0.419706
vt 0.550447 0.383337
vt 0.949553 0.383337
vt 0.528269 0.341844
vt 0.750000 0.010000
vt 0.616663 0.050447
vt 0.658156 0.028269
vt 0.514612 0.296822
vt 0.514611 0.203179
vt 0.510000 0.250000
vt 0.550447 0.116663
vt 0.528269 0.158156
vt 0.580294 0.080294
vt 0.703178 0.014612
vt 0.796822 0.014612
vt 0.883337 0.050447
vt 0.841844 0.028269
vt 0.949553 0.116663
vt 0.919706 0.080294
vt 0.985388 0.203178
vt 0.971731 0.158156
vt 0.990000 0.250000
vt 0.406250 0.118178
vt 0.341844 0.471731
vt 0.319677 0.478455
vt 0.319677 0.412581
vt 0.180323 0.478455
vt 0.158156 0.471731
vt 0.383337 0.449553
vt 0.116663 0.449553
vt 0.419706 0.419706
vt 0.080295 0.419706
vt 0.449553 0.383337
vt 0.050447 0.383337
vt 0.471731 0.341844
vt 0.250000 0.010000
vt 0.383337 0.050447
vt 0.341844 0.028269
vt 0.485388 0.296822
vt 0.485388 0.203178
vt 0.490000 0.250000
vt 0.449553 0.116663
vt 0.471731 0.158156
vt 0.419706 0.080294
vt 0.296822 0.014612
vt 0.203178 0.014612
vt 0.116663 0.050447
vt 0.158156 0.028269
vt 0.050447 0.116663
vt 0.080294 0.080294
vt 0.014611 0.203179
vt 0.028269 0.158156
vt 0.010000 0.250000
vn 0.4714 0.8819 0.0000
vn 0.6344 0.7730 0.0000
vn 0.7730 0.6344 0.0000
vn 0.8819 0.4714 0.0000
vn 0.9569 0.2903 0.0000
vn 0.9952 0.0980 0.0000
vn 0.9952 -0.0980 0.0000
vn 0.9569 -0.2903 0.0000
vn 0.8819 -0.4714 0.0000
vn 0.7730 -0.6344 0.0000
vn 0.6344 -0.7730 0.0000
vn 0.4714 -0.8819 0.0000
vn 0.2903 -0.9569 0.0000
vn 0.0980 -0.9952 0.0000
vn -0.0980 -0.9952 0.0000
vn -0.2903 -0.9569 0.0000
vn -0.4714 -0.8819 0.0000
vn -0.6344 -0.7730 0.0000
vn -0.7730 -0.6344 0.0000
vn -0.8819 -0.4714 0.0000
vn -0.9569 -0.2903 0.0000
vn -0.9952 -0.0980 0.0000
vn -0.9952 0.0980 0.0000
vn -0.9569 0.2903 0.0000
vn -0.8819 0.4714 0.0000
vn -0.7730 0.6344 0.0000
vn -0.6344 0.7730 0.0000
vn -0.4714 0.8819 0.0000
vn -0.4061 0.9138 0.0000
vn -1.0000 0.0000 0.0000
vn -0.0000 0.0000 -1.0000
vn 1.0000 0.0000 0.0000
vn 0.0000 0.0000 1.0000
vn 0.4061 0.9138 0.0000
vn 0.0000 1.0000 0.0000
usemtl None
s off
f 2/1/1 3/2/1 1/3/1
f 4/4/2 5/5/2 3/2/2
f 6/6/3 7/7/3 5/5/3
f 8/8/4 9/9/4 7/7/4
f 10/10/5 11/11/5 9/9/5
f 12/12/6 13/13/6 11/11/6
f 14/14/7 15/15/7 13/13/7
f 16/16/8 17/17/8 15/15/8
f 18/18/9 19/19/9 17/17/9
f 20/20/10 21/21/10 19/19/10
f 22/22/11 23/23/11 21/21/11
f 24/24/12 25/25/12 23/23/12
f 26/26/13 27/27/13 25/25/13
f 28/28/14 29/29/14 27/27/14
f 30/30/15 31/31/15 29/29/15
f 32/32/16 33/33/16 31/31/16
f 34/34/17 35/35/17 33/33/17
f 36/36/18 37/37/18 35/35/18
f 38/38/19 39/39/19 37/37/19
f 40/40/20 41/41/20 39/39/20
f 42/42/21 43/43/21 41/41/21
f 44/44/22 45/45/22 43/43/22
f 46/46/23 47/47/23 45/45/23
f 48/48/24 49/49/24 47/47/24
f 50/50/25 51/51/25 49/49/25
f 52/52/26 53/53/26 51/51/26
f 54/54/27 55/55/27 53/53/27
f 56/56/28 57/57/28 55/55/28
f 58/58/29 64/59/29 57/57/29
f 61/60/30 59/61/30 62/62/30
f 9/63/31 11/64/31 62/65/31
f 66/66/32 63/67/32 65/68/32
f 50/69/33 48/70/33 65/71/33
f 60/72/34 1/3/34 59/73/34
f 65/74/35 62/62/35 66/75/35
f 2/1/1 4/4/1 3/2/1
f 4/4/2 6/6/2 5/5/2
f 6/6/3 8/8/3 7/7/3
f 8/8/4 10/10/4 9/9/4
f 10/10/5 12/12/5 11/11/5
f 12/12/6 14/14/6 13/13/6
f 14/14/7 16/16/7 15/15/7
f 16/16/8 18/18/8 17/17/8
f 18/18/9 20/20/9 19/19/9
f 20/20/10 22/22/10 21/21/10
f 22/22/11 24/24/11 23/23/11
f 24/24/12 26/26/12 25/25/12
f 26/26/13 28/28/13 27/27/13
f 28/28/14 30/30/14 29/29/14
f 30/30/15 32/32/15 31/31/15
f 32/32/16 34/34/16 33/33/16
f 34/34/17 36/36/17 35/35/17
f 36/36/18 38/38/18 37/37/18
f 38/38/19 40/40/19 39/39/19
f 40/40/20 42/42/20 41/41/20
f 42/42/21 44/44/21 43/43/21
f 44/44/22 46/46/22 45/45/22
f 46/46/23 48/48/23 47/47/23
f 48/48/24 50/50/24 49/49/24
f 50/50/25 52/52/25 51/51/25
f 52/52/26 54/54/26 53/53/26
f 54/54/27 56/56/27 55/55/27
f 56/56/28 58/58/28 57/57/28
f 58/58/29 63/76/29 64/59/29
f 61/60/30 60/77/30 59/61/30
f 57/78/31 64/79/31 66/80/31
f 62/65/31 59/81/31 1/82/31
f 55/83/31 57/78/31 66/80/31
f 62/65/31 1/82/31 3/84/31
f 53/85/31 55/83/31 66/80/31
f 62/65/31 3/84/31 5/86/31
f 51/87/31 53/85/31 66/80/31
f 62/65/31 5/86/31 7/88/31
f 51/87/31 66/80/31 49/89/31
f 66/80/31 62/65/31 29/90/31
f 35/91/31 66/80/31 33/92/31
f 47/93/31 49/89/31 66/80/31
f 43/94/31 45/95/31 66/80/31
f 45/95/31 47/93/31 66/80/31
f 39/96/31 41/97/31 66/80/31
f 41/97/31 43/94/31 66/80/31
f 35/91/31 37/98/31 66/80/31
f 37/98/31 39/96/31 66/80/31
f 31/99/31 33/92/31 66/80/31
f 27/100/31 29/90/31 62/65/31
f 29/90/31 31/99/31 66/80/31
f 23/101/31 25/102/31 62/65/31
f 25/102/31 27/100/31 62/65/31
f 19/103/31 21/104/31 62/65/31
f 21/104/31 23/101/31 62/65/31
f 15/105/31 17/106/31 62/65/31
f 17/106/31 19/103/31 62/65/31
f 11/64/31 13/107/31 62/65/31
f 13/107/31 15/105/31 62/65/31
f 7/88/31 9/63/31 62/65/31
f 66/66/32 64/108/32 63/67/32
f 2/109/33 60/110/33 61/111/33
f 65/71/33 63/112/33 58/113/33
f 4/114/33 2/109/33 61/111/33
f 65/71/33 58/113/33 56/115/33
f 6/116/33 4/114/33 61/111/33
f 65/71/33 56/115/33 54/117/33
f 8/118/33 6/116/33 61/111/33
f 65/71/33 54/117/33 52/119/33
f 8/118/33 61/111/33 10/120/33
f 61/111/33 65/71/33 30/121/33
f 24/122/33 61/111/33 26/123/33
f 12/124/33 10/120/33 61/111/33
f 16/125/33 14/126/33 61/111/33
f 14/126/33 12/124/33 61/111/33
f 20/127/33 18/128/33 61/111/33
f 18/128/33 16/125/33 61/111/33
f 24/122/33 22/129/33 61/111/33
f 22/129/33 20/127/33 61/111/33
f 28/130/33 26/123/33 61/111/33
f 32/131/33 30/121/33 65/71/33
f 30/121/33 28/130/33 61/111/33
f 36/132/33 34/133/33 65/71/33
f 34/133/33 32/131/33 65/71/33
f 40/134/33 38/135/33 65/71/33
f 38/135/33 36/132/33 65/71/33
f 44/136/33 42/137/33 65/71/33
f 42/137/33 40/134/33 65/71/33
f 48/70/33 46/138/33 65/71/33
f 46/138/33 44/136/33 65/71/33
f 52/119/33 50/69/33 65/71/33
f 60/72/34 2/1/34 1/3/34
f 65/74/35 61/60/35 62/62/35
