# Blender v2.90.1 OBJ File: 'cpmplex.blend'
# www.blender.org
mtllib base.mtl
o 立方体.006_立方体.019
v -0.015000 -0.015000 -0.020000
v -0.015000 -0.015000 0.000000
v -0.015000 0.015000 -0.020000
v -0.015000 0.015000 0.000000
v 0.015000 -0.015000 -0.020000
v 0.015000 -0.015000 0.000000
v 0.015000 0.015000 -0.020000
v 0.015000 0.015000 0.000000
v 0.008660 -0.005000 0.000000
v 0.008660 -0.005000 -0.020000
v -0.008660 -0.005000 0.000000
v -0.008660 -0.005000 -0.020000
v 0.000000 0.010000 0.000000
v 0.000000 0.010000 -0.020000
vt 0.625000 0.000000
vt 0.375000 0.250000
vt 0.375000 0.000000
vt 0.625000 0.250000
vt 0.375000 0.500000
vt 0.625000 0.500000
vt 0.375000 0.750000
vt 0.625000 0.750000
vt 0.375000 1.000000
vt 0.125000 0.500000
vt 0.250000 0.541667
vt 0.875000 0.500000
vt 0.750000 0.541667
vt 0.333333 0.916667
vt 0.666667 0.750000
vt 0.333333 0.750000
vt 0.666667 0.916667
vt 1.000000 0.750000
vt 0.125000 0.750000
vt 0.322169 0.666667
vt 0.677831 0.666667
vt 0.875000 0.750000
vt -0.000000 0.916667
vt -0.000000 0.750000
vt 0.625000 1.000000
vt 0.177831 0.666667
vt 0.822169 0.666667
vt 1.000000 0.916667
vn -1.0000 0.0000 0.0000
vn 0.0000 1.0000 0.0000
vn 1.0000 0.0000 0.0000
vn 0.0000 -1.0000 0.0000
vn 0.0000 0.0000 -1.0000
vn 0.0000 0.0000 1.0000
vn -0.8660 -0.5000 0.0000
vn 0.8660 -0.5000 0.0000
usemtl None
s off
f 2/1/1 3/2/1 1/3/1
f 4/4/2 7/5/2 3/2/2
f 8/6/3 5/7/3 7/5/3
f 6/8/4 1/9/4 5/7/4
f 3/10/5 7/5/5 14/11/5
f 8/6/6 4/12/6 13/13/6
f 11/14/2 10/15/2 12/16/2
f 9/17/7 14/18/7 10/15/7
f 1/19/5 10/20/5 5/7/5
f 9/21/6 2/22/6 6/8/6
f 13/23/8 12/16/8 14/24/8
f 2/1/1 4/4/1 3/2/1
f 4/4/2 8/6/2 7/5/2
f 8/6/3 6/8/3 5/7/3
f 6/8/4 2/25/4 1/9/4
f 7/5/5 5/7/5 10/20/5
f 14/11/5 12/26/5 3/10/5
f 12/26/5 1/19/5 3/10/5
f 7/5/5 10/20/5 14/11/5
f 4/12/6 2/22/6 11/27/6
f 13/13/6 9/21/6 8/6/6
f 9/21/6 6/8/6 8/6/6
f 4/12/6 11/27/6 13/13/6
f 11/14/2 9/17/2 10/15/2
f 9/17/7 13/28/7 14/18/7
f 1/19/5 12/26/5 10/20/5
f 9/21/6 11/27/6 2/22/6
f 13/23/8 11/14/8 12/16/8
