# Blender v2.90.1 OBJ File: 'cpmplex.blend'
# www.blender.org
mtllib base.mtl
o 立方体.012_立方体.028
v -0.015000 -0.015000 -0.020000
v -0.015000 -0.015000 -0.000000
v -0.015000 0.015000 -0.020000
v -0.015000 0.015000 -0.000000
v 0.015000 -0.015000 -0.020000
v 0.015000 -0.015000 -0.000000
v 0.015000 0.015000 -0.020000
v 0.015000 0.015000 -0.000000
v -0.009239 0.003827 -0.000000
v -0.009239 0.003827 -0.020000
v -0.008315 0.005556 -0.000000
v -0.008315 0.005556 -0.020000
v 0.003827 0.009239 -0.000000
v 0.003827 0.009239 -0.020000
v -0.009808 0.001951 -0.000000
v -0.009808 0.001951 -0.020000
v 0.007071 0.007071 -0.000000
v 0.007071 0.007071 -0.020000
v 0.005556 -0.008315 -0.000000
v 0.005556 -0.008315 -0.020000
v 0.003827 -0.009239 -0.000000
v 0.003827 -0.009239 -0.020000
v 0.008315 0.005556 -0.000000
v 0.008315 0.005556 -0.020000
v 0.001951 -0.009808 -0.000000
v 0.001951 -0.009808 -0.020000
v -0.003827 -0.009239 -0.000000
v -0.003827 -0.009239 -0.020000
v -0.010000 0.000000 -0.000000
v -0.010000 0.000000 -0.020000
v -0.003827 0.009239 -0.000000
v -0.003827 0.009239 -0.020000
v -0.005556 -0.008315 -0.000000
v -0.005556 -0.008315 -0.020000
v 0.009808 -0.001951 -0.000000
v 0.009808 -0.001951 -0.020000
v 0.007071 -0.007071 -0.000000
v 0.007071 -0.007071 -0.020000
v 0.009239 -0.003827 -0.000000
v 0.009239 -0.003827 -0.020000
v 0.010000 0.000000 -0.000000
v 0.010000 0.000000 -0.020000
v -0.007071 0.007071 -0.000000
v -0.007071 0.007071 -0.020000
v -0.005556 0.008315 -0.000000
v -0.005556 0.008315 -0.020000
v -0.000000 -0.010000 -0.000000
v -0.000000 -0.010000 -0.020000
v 0.009808 0.001951 -0.000000
v 0.009808 0.001951 -0.020000
v 0.005556 0.008315 -0.000000
v 0.005556 0.008315 -0.020000
v 0.009239 0.003827 -0.000000
v 0.009239 0.003827 -0.020000
v -0.009239 -0.003827 -0.000000
v -0.009239 -0.003827 -0.020000
v -0.008315 -0.005556 -0.000000
v -0.008315 -0.005556 -0.020000
v -0.009808 -0.001951 -0.000000
v -0.009808 -0.001951 -0.020000
v -0.007071 -0.007071 -0.000000
v -0.007071 -0.007071 -0.020000
v -0.001951 -0.009808 -0.000000
v -0.001951 -0.009808 -0.020000
v 0.008315 -0.005556 -0.000000
v 0.008315 -0.005556 -0.020000
v -0.002000 0.012000 -0.000000
v -0.002000 0.012000 -0.020000
v 0.002000 0.012000 -0.000000
v 0.002000 0.012000 -0.020000
v 0.002000 0.009793 -0.020000
v 0.002000 0.009793 -0.000000
v -0.002000 0.009793 -0.000000
v -0.002000 0.009793 -0.020000
vt 0.625000 0.000000
vt 0.375000 0.250000
vt 0.375000 0.000000
vt 0.625000 0.250000
vt 0.375000 0.500000
vt 0.625000 0.500000
vt 0.375000 0.750000
vt 0.625000 0.750000
vt 0.375000 1.000000
vt 0.125000 0.500000
vt 0.233333 0.525000
vt 0.750000 0.708333
vt 0.766258 0.706732
vt 0.875000 0.750000
vt 0.718750 0.833333
vt 0.750000 0.666667
vt 0.718750 0.666667
vt 0.625000 0.833333
vt 0.656250 0.666667
vt 0.625000 0.666667
vt 0.656250 0.833333
vt 0.687500 0.666667
vt 0.218750 0.833333
vt 0.250000 0.666667
vt 0.218750 0.666667
vt 0.781250 0.833333
vt 0.812500 0.666667
vt 0.781250 0.666667
vt 0.843750 0.833333
vt 0.875000 0.666667
vt 0.843750 0.666667
vt 0.468750 0.833333
vt 0.500000 0.666667
vt 0.468750 0.666667
vt 0.156250 0.833333
vt 0.187500 0.666667
vt 0.156250 0.666667
vt 0.500000 0.833333
vt 0.531250 0.666667
vt 0.875000 0.833333
vt 0.906250 0.666667
vt 0.406250 0.833333
vt 0.437500 0.666667
vt 0.406250 0.666667
vt 0.906250 0.833333
vt 0.937500 0.666667
vt 0.593750 0.833333
vt 0.593750 0.666667
vt 0.093750 0.833333
vt 0.125000 0.666667
vt 0.093750 0.666667
vt 0.187500 0.833333
vt 0.125000 0.750000
vt 0.233742 0.706732
vt 0.250000 0.708333
vt 0.562500 0.833333
vt 0.562500 0.666667
vt 0.375000 0.833333
vt 0.375000 0.666667
vt 0.312500 0.833333
vt 0.343750 0.666667
vt 0.312500 0.666667
vt 0.812500 0.833333
vt 0.250000 0.833333
vt 0.281250 0.666667
vt 0.687500 0.833333
vt 0.437500 0.833333
vt 0.062500 0.833333
vt 0.062500 0.666667
vt 0.937500 0.833333
vt 0.967932 0.666667
vt 0.531250 0.833333
vt 0.281250 0.833333
vt 0.125000 0.833333
vt 0.875000 0.500000
vt 0.733333 0.525000
vt 0.343750 0.833333
vt 0.458333 0.500000
vt 0.541667 0.637940
vt 0.541667 0.500000
vt 0.458333 0.250000
vt 0.541667 0.250000
vt 0.458333 0.112060
vt 0.032068 0.833333
vt 0.032068 0.666667
vt 0.625000 1.000000
vt 0.333333 0.625000
vt 0.331732 0.608742
vt 0.326990 0.593110
vt 0.168268 0.608742
vt 0.166667 0.625000
vt 0.173010 0.593110
vt 0.319289 0.578702
vt 0.308926 0.566074
vt 0.180711 0.578702
vt 0.191075 0.566074
vt 0.296298 0.555711
vt 0.281890 0.548010
vt 0.266667 0.543392
vt 0.266667 0.525000
vt 0.203703 0.555711
vt 0.233333 0.543392
vt 0.218110 0.548010
vt 0.666667 0.625000
vt 0.668268 0.641258
vt 0.833333 0.625000
vt 0.831732 0.641258
vt 0.673010 0.656890
vt 0.680711 0.671298
vt 0.826990 0.656890
vt 0.819289 0.671298
vt 0.691074 0.683926
vt 0.703702 0.694289
vt 0.808926 0.683926
vt 0.796298 0.694289
vt 0.718110 0.701990
vt 0.733742 0.706732
vt 0.781890 0.701990
vt 0.750000 0.833333
vt 0.331732 0.641257
vt 0.168268 0.641257
vt 0.326990 0.656890
vt 0.173010 0.656890
vt 0.180711 0.671298
vt 0.319289 0.671298
vt 0.308926 0.683926
vt 0.191074 0.683926
vt 0.203702 0.694289
vt 0.296298 0.694289
vt 0.281890 0.701990
vt 0.218110 0.701990
vt 0.266258 0.706732
vt 0.967932 0.833333
vt 0.831732 0.608742
vt 0.826990 0.593110
vt 0.668268 0.608742
vt 0.673010 0.593110
vt 0.819289 0.578702
vt 0.808926 0.566074
vt 0.680711 0.578703
vt 0.691074 0.566074
vt 0.796297 0.555711
vt 0.781890 0.548010
vt 0.766667 0.543392
vt 0.766667 0.525000
vt 0.703703 0.555711
vt 0.733333 0.543392
vt 0.718110 0.548010
vt 0.458333 0.637940
vt 0.541667 0.112060
vn -1.0000 0.0000 0.0000
vn 0.0000 1.0000 0.0000
vn 1.0000 0.0000 0.0000
vn 0.0000 -1.0000 0.0000
vn 0.0000 0.0000 -1.0000
vn 0.0000 0.0000 1.0000
vn -0.9952 0.0980 0.0000
vn -0.7730 0.6344 0.0000
vn -0.8819 0.4714 0.0000
vn 0.9952 -0.0980 0.0000
vn -0.9569 -0.2903 0.0000
vn -0.9952 -0.0980 0.0000
vn -0.7730 -0.6344 0.0000
vn 0.0980 0.9952 0.0000
vn 0.8819 -0.4714 0.0000
vn -0.0980 0.9952 0.0000
vn -0.6344 -0.7730 0.0000
vn 0.4714 0.8819 0.0000
vn -0.4714 -0.8819 0.0000
vn -0.6344 0.7730 0.0000
vn 0.6344 -0.7730 0.0000
vn 0.9569 -0.2903 0.0000
vn -0.4714 0.8819 0.0000
vn 0.6344 0.7730 0.0000
vn 0.8819 0.4714 0.0000
vn -0.8819 -0.4714 0.0000
vn 0.9952 0.0980 0.0000
vn -0.9569 0.2903 0.0000
vn 0.2903 0.9569 0.0000
vn 0.4714 -0.8819 0.0000
vn -0.2903 -0.9569 0.0000
vn -0.2903 0.9569 0.0000
vn 0.9569 0.2903 0.0000
vn 0.7730 -0.6344 0.0000
vn 0.7730 0.6344 0.0000
vn 0.2903 -0.9569 0.0000
usemtl None
s off
f 2/1/1 3/2/1 1/3/1
f 4/4/2 7/5/2 3/2/2
f 8/6/3 5/7/3 7/5/3
f 6/8/4 1/9/4 5/7/4
f 3/10/5 7/5/5 68/11/5
f 47/12/6 63/13/6 2/14/6
f 35/15/7 42/16/7 36/17/7
f 37/18/8 66/19/8 38/20/8
f 65/21/9 40/22/9 66/19/9
f 15/23/10 30/24/10 16/25/10
f 49/26/11 54/27/11 50/28/11
f 42/16/12 49/26/12 50/28/12
f 23/29/13 18/30/13 24/31/13
f 63/32/14 48/33/14 64/34/14
f 11/35/15 10/36/15 12/37/15
f 47/38/16 26/39/16 48/33/16
f 17/40/17 52/41/17 18/30/17
f 33/42/18 28/43/18 34/44/18
f 51/45/19 14/46/19 52/41/19
f 19/47/20 38/20/20 20/48/20
f 45/49/21 44/50/21 46/51/21
f 9/52/22 16/25/22 10/36/22
f 1/53/5 64/54/5 48/55/5
f 21/56/23 20/48/23 22/57/23
f 61/58/24 34/44/24 62/59/24
f 55/60/25 58/61/25 56/62/25
f 53/63/26 24/31/26 54/27/26
f 29/64/27 60/65/27 30/24/27
f 39/66/28 36/17/28 40/22/28
f 27/67/29 64/34/29 28/43/29
f 31/68/30 46/51/30 32/69/30
f 13/70/31 71/71/31 14/46/31
f 25/72/32 22/57/32 26/39/32
f 59/73/33 56/62/33 60/65/33
f 43/74/34 12/37/34 44/50/34
f 4/75/6 69/76/6 8/6/6
f 57/77/35 62/59/35 58/61/35
f 70/78/1 72/79/1 69/80/1
f 69/80/4 68/81/4 70/78/4
f 67/82/3 74/83/3 68/81/3
f 73/84/36 32/69/36 74/85/36
f 2/1/1 4/4/1 3/2/1
f 4/4/2 8/6/2 7/5/2
f 8/6/3 6/8/3 5/7/3
f 6/8/4 2/86/4 1/9/4
f 7/5/5 42/87/5 50/88/5
f 7/5/5 50/88/5 54/89/5
f 16/90/5 30/91/5 3/10/5
f 10/92/5 16/90/5 3/10/5
f 7/5/5 54/89/5 24/93/5
f 7/5/5 24/93/5 18/94/5
f 12/95/5 10/92/5 3/10/5
f 44/96/5 12/95/5 3/10/5
f 7/5/5 18/94/5 52/97/5
f 14/98/5 71/99/5 70/100/5
f 7/5/5 52/97/5 70/100/5
f 52/97/5 14/98/5 70/100/5
f 46/101/5 44/96/5 3/10/5
f 68/11/5 74/102/5 32/103/5
f 32/103/5 46/101/5 68/11/5
f 46/101/5 3/10/5 68/11/5
f 7/5/5 70/100/5 68/11/5
f 6/8/6 8/6/6 41/104/6
f 6/8/6 41/104/6 35/105/6
f 29/106/6 4/75/6 2/14/6
f 59/107/6 29/106/6 2/14/6
f 6/8/6 35/105/6 39/108/6
f 6/8/6 39/108/6 65/109/6
f 55/110/6 59/107/6 2/14/6
f 57/111/6 55/110/6 2/14/6
f 6/8/6 65/109/6 37/112/6
f 6/8/6 37/112/6 19/113/6
f 61/114/6 57/111/6 2/14/6
f 33/115/6 61/114/6 2/14/6
f 6/8/6 19/113/6 21/116/6
f 6/8/6 21/116/6 25/117/6
f 27/118/6 33/115/6 2/14/6
f 63/13/6 27/118/6 2/14/6
f 2/14/6 6/8/6 47/12/6
f 6/8/6 25/117/6 47/12/6
f 35/15/7 41/119/7 42/16/7
f 37/18/8 65/21/8 66/19/8
f 65/21/9 39/66/9 40/22/9
f 15/23/10 29/64/10 30/24/10
f 49/26/11 53/63/11 54/27/11
f 42/16/12 41/119/12 49/26/12
f 23/29/13 17/40/13 18/30/13
f 63/32/14 47/38/14 48/33/14
f 11/35/15 9/52/15 10/36/15
f 47/38/16 25/72/16 26/39/16
f 17/40/17 51/45/17 52/41/17
f 33/42/18 27/67/18 28/43/18
f 51/45/19 13/70/19 14/46/19
f 19/47/20 37/18/20 38/20/20
f 45/49/21 43/74/21 44/50/21
f 9/52/22 15/23/22 16/25/22
f 36/120/5 42/87/5 5/7/5
f 42/87/5 7/5/5 5/7/5
f 1/53/5 3/10/5 30/91/5
f 1/53/5 30/91/5 60/121/5
f 40/122/5 36/120/5 5/7/5
f 1/53/5 60/121/5 56/123/5
f 1/53/5 56/123/5 58/124/5
f 66/125/5 40/122/5 5/7/5
f 38/126/5 66/125/5 5/7/5
f 1/53/5 58/124/5 62/127/5
f 1/53/5 62/127/5 34/128/5
f 20/129/5 38/126/5 5/7/5
f 22/130/5 20/129/5 5/7/5
f 1/53/5 34/128/5 28/131/5
f 1/53/5 28/131/5 64/54/5
f 22/130/5 5/7/5 26/132/5
f 5/7/5 1/53/5 48/55/5
f 26/132/5 5/7/5 48/55/5
f 21/56/23 19/47/23 20/48/23
f 61/58/24 33/42/24 34/44/24
f 55/60/25 57/77/25 58/61/25
f 53/63/26 23/29/26 24/31/26
f 29/64/27 59/73/27 60/65/27
f 39/66/28 35/15/28 36/17/28
f 27/67/29 63/32/29 64/34/29
f 31/68/30 45/49/30 46/51/30
f 13/70/31 72/133/31 71/71/31
f 25/72/32 21/56/32 22/57/32
f 59/73/33 55/60/33 56/62/33
f 43/74/34 11/35/34 12/37/34
f 4/75/6 29/106/6 15/134/6
f 4/75/6 15/134/6 9/135/6
f 49/136/6 41/104/6 8/6/6
f 53/137/6 49/136/6 8/6/6
f 4/75/6 9/135/6 11/138/6
f 4/75/6 11/138/6 43/139/6
f 23/140/6 53/137/6 8/6/6
f 17/141/6 23/140/6 8/6/6
f 4/75/6 43/139/6 45/142/6
f 31/143/6 73/144/6 67/145/6
f 4/75/6 45/142/6 67/145/6
f 45/142/6 31/143/6 67/145/6
f 51/146/6 17/141/6 8/6/6
f 69/76/6 72/147/6 13/148/6
f 13/148/6 51/146/6 69/76/6
f 51/146/6 8/6/6 69/76/6
f 4/75/6 67/145/6 69/76/6
f 57/77/35 61/58/35 62/59/35
f 70/78/1 71/149/1 72/79/1
f 69/80/4 67/82/4 68/81/4
f 67/82/3 73/150/3 74/83/3
f 73/84/36 31/68/36 32/69/36
