# Blender v2.90.1 OBJ File: 'cpmplex.blend'
# www.blender.org
mtllib base.mtl
o 立方体.026_立方体.004
v -0.015000 -0.015000 -0.020000
v -0.015000 -0.015000 -0.000000
v -0.015000 0.015000 -0.020000
v -0.015000 0.015000 -0.000000
v 0.015000 -0.015000 -0.020000
v 0.015000 -0.015000 -0.000000
v 0.015000 0.015000 -0.020000
v 0.015000 0.015000 -0.000000
v 0.000000 0.010000 -0.000000
v 0.000000 0.010000 -0.020000
v 0.009511 0.003090 -0.000000
v 0.009511 0.003090 -0.020000
v 0.005878 -0.008090 -0.000000
v 0.005878 -0.008090 -0.020000
v -0.005878 -0.008090 -0.000000
v -0.005878 -0.008090 -0.020000
v -0.009511 0.003090 -0.000000
v -0.009511 0.003090 -0.020000
vt 0.625000 0.000000
vt 0.375000 0.250000
vt 0.375000 0.000000
vt 0.625000 0.250000
vt 0.375000 0.500000
vt 0.625000 0.500000
vt 0.375000 0.750000
vt 0.625000 0.750000
vt 0.375000 1.000000
vt 0.125000 0.500000
vt 0.250000 0.541667
vt 0.798982 0.692418
vt 0.829255 0.599249
vt 0.875000 0.750000
vt 0.400000 0.833333
vt 0.600000 0.666667
vt 0.400000 0.666667
vt 0.600000 0.833333
vt 0.800000 0.666667
vt 0.298982 0.692418
vt 0.125000 0.750000
vt 0.800000 0.833333
vt 1.000000 0.666667
vt 0.875000 0.500000
vt 0.750000 0.541667
vt 0.200000 0.833333
vt 0.200000 0.666667
vt 0.000000 0.833333
vt 0.000000 0.666667
vt 0.625000 1.000000
vt 0.329255 0.599249
vt 0.170745 0.599249
vt 0.670745 0.599249
vt 0.701018 0.692418
vt 0.201018 0.692418
vt 1.000000 0.833333
vn -1.0000 0.0000 0.0000
vn 0.0000 1.0000 0.0000
vn 1.0000 0.0000 0.0000
vn 0.0000 -1.0000 0.0000
vn 0.0000 0.0000 -1.0000
vn 0.0000 0.0000 1.0000
vn -0.9511 0.3090 0.0000
vn -0.5878 -0.8090 0.0000
vn 0.9511 0.3090 0.0000
vn 0.5878 -0.8090 0.0000
usemtl None
s off
f 2/1/1 3/2/1 1/3/1
f 4/4/2 7/5/2 3/2/2
f 8/6/3 5/7/3 7/5/3
f 6/8/4 1/9/4 5/7/4
f 3/10/5 7/5/5 10/11/5
f 15/12/6 17/13/6 2/14/6
f 15/15/2 14/16/2 16/17/2
f 13/18/7 12/19/7 14/16/7
f 14/20/5 5/7/5 1/21/5
f 11/22/8 10/23/8 12/19/8
f 4/24/6 9/25/6 8/6/6
f 17/26/9 16/17/9 18/27/9
f 9/28/10 18/27/10 10/29/10
f 2/1/1 4/4/1 3/2/1
f 4/4/2 8/6/2 7/5/2
f 8/6/3 6/8/3 5/7/3
f 6/8/4 2/30/4 1/9/4
f 7/5/5 12/31/5 10/11/5
f 10/11/5 18/32/5 3/10/5
f 6/8/6 8/6/6 11/33/6
f 6/8/6 11/33/6 13/34/6
f 17/13/6 4/24/6 2/14/6
f 6/8/6 13/34/6 2/14/6
f 13/34/6 15/12/6 2/14/6
f 15/15/2 13/18/2 14/16/2
f 13/18/7 11/22/7 12/19/7
f 14/20/5 12/31/5 5/7/5
f 12/31/5 7/5/5 5/7/5
f 1/21/5 3/10/5 18/32/5
f 1/21/5 18/32/5 16/35/5
f 1/21/5 16/35/5 14/20/5
f 11/22/8 9/36/8 10/23/8
f 4/24/6 17/13/6 9/25/6
f 9/25/6 11/33/6 8/6/6
f 17/26/9 15/15/9 16/17/9
f 9/28/10 17/26/10 18/27/10
