# Blender v2.90.1 OBJ File: 'cpmplex.blend'
# www.blender.org
mtllib base.mtl
o 立方体.017_立方体
v -0.015000 -0.015000 -0.020000
v -0.015000 -0.015000 -0.000000
v -0.015000 0.015000 -0.020000
v -0.015000 0.015000 -0.000000
v 0.015000 -0.015000 -0.020000
v 0.015000 -0.015000 -0.000000
v 0.015000 0.015000 -0.020000
v 0.015000 0.015000 -0.000000
v -0.010000 0.010000 -0.000000
v -0.010000 0.010000 -0.020000
v 0.010000 0.010000 -0.000000
v 0.010000 0.010000 -0.020000
v 0.010000 -0.010000 -0.000000
v 0.010000 -0.010000 -0.020000
v -0.010000 -0.010000 -0.000000
v -0.010000 -0.010000 -0.020000
vt 0.625000 0.000000
vt 0.375000 0.250000
vt 0.375000 0.000000
vt 0.625000 0.250000
vt 0.375000 0.500000
vt 0.625000 0.500000
vt 0.375000 0.750000
vt 0.625000 0.750000
vt 0.375000 1.000000
vt 0.333333 0.708333
vt 0.333333 0.541667
vt 0.666667 0.708333
vt 0.875000 0.750000
vt 0.541667 0.750000
vt 0.458333 0.500000
vt 0.458333 0.750000
vt 0.541667 0.500000
vt 0.458333 0.250000
vt 0.833333 0.541667
vt 0.875000 0.500000
vt 0.541667 0.250000
vt 0.458333 0.000000
vt 0.541667 1.000000
vt 0.458333 1.000000
vt 0.166667 0.708333
vt 0.125000 0.750000
vt 0.625000 1.000000
vt 0.166667 0.541667
vt 0.125000 0.500000
vt 0.666667 0.541667
vt 0.833333 0.708333
vt 0.541667 0.000000
vn -1.0000 0.0000 0.0000
vn 0.0000 1.0000 0.0000
vn 1.0000 0.0000 0.0000
vn 0.0000 -1.0000 0.0000
vn -0.0000 0.0000 -1.0000
vn 0.0000 0.0000 1.0000
usemtl None
s off
f 2/1/1 3/2/1 1/3/1
f 4/4/2 7/5/2 3/2/2
f 8/6/3 5/7/3 7/5/3
f 6/8/4 1/9/4 5/7/4
f 7/5/5 14/10/5 12/11/5
f 13/12/6 2/13/6 6/8/6
f 13/14/1 12/15/1 14/16/1
f 11/17/4 10/18/4 12/15/4
f 9/19/6 8/6/6 4/20/6
f 9/21/3 16/22/3 10/18/3
f 15/23/2 14/16/2 16/24/2
f 16/25/5 5/7/5 1/26/5
f 2/1/1 4/4/1 3/2/1
f 4/4/2 8/6/2 7/5/2
f 8/6/3 6/8/3 5/7/3
f 6/8/4 2/27/4 1/9/4
f 10/28/5 3/29/5 12/11/5
f 3/29/5 7/5/5 12/11/5
f 7/5/5 5/7/5 14/10/5
f 6/8/6 8/6/6 11/30/6
f 13/12/6 15/31/6 2/13/6
f 6/8/6 11/30/6 13/12/6
f 13/14/1 11/17/1 12/15/1
f 11/17/4 9/21/4 10/18/4
f 4/20/6 2/13/6 15/31/6
f 9/19/6 11/30/6 8/6/6
f 4/20/6 15/31/6 9/19/6
f 9/21/3 15/32/3 16/22/3
f 15/23/2 13/14/2 14/16/2
f 3/29/5 10/28/5 16/25/5
f 16/25/5 14/10/5 5/7/5
f 1/26/5 3/29/5 16/25/5
