# Blender v2.90.1 OBJ File: 'cpmplex.blend'
# www.blender.org
mtllib peg.mtl
o 柱体.009_柱体.018
v -0.009300 0.001860 -0.060000
v -0.009300 0.001860 -0.000000
v -0.009121 0.003674 -0.060000
v -0.009121 0.003674 -0.000000
v 0.009121 0.003674 -0.060000
v 0.009121 0.003674 -0.000000
v 0.009300 0.001860 -0.060000
v 0.009300 0.001860 -0.000000
v 0.009121 0.000046 -0.060000
v 0.009121 0.000046 -0.000000
v 0.008592 -0.001699 -0.060000
v 0.008592 -0.001699 -0.000000
v 0.007733 -0.003307 -0.060000
v 0.007733 -0.003307 -0.000000
v 0.006576 -0.004716 -0.060000
v 0.006576 -0.004716 -0.000000
v 0.005167 -0.005873 -0.060000
v 0.005167 -0.005873 -0.000000
v 0.003559 -0.006732 -0.060000
v 0.003559 -0.006732 -0.000000
v 0.001814 -0.007261 -0.060000
v 0.001814 -0.007261 -0.000000
v -0.000000 -0.007440 -0.060000
v -0.000000 -0.007440 -0.000000
v -0.001814 -0.007261 -0.060000
v -0.001814 -0.007261 -0.000000
v -0.003559 -0.006732 -0.060000
v -0.003559 -0.006732 -0.000000
v -0.005167 -0.005873 -0.060000
v -0.005167 -0.005873 -0.000000
v -0.006576 -0.004716 -0.060000
v -0.006576 -0.004716 -0.000000
v -0.007733 -0.003307 -0.060000
v -0.007733 -0.003307 -0.000000
v -0.008592 -0.001699 -0.060000
v -0.008592 -0.001699 -0.000000
v -0.009121 0.000046 -0.060000
v -0.009121 0.000046 -0.000000
v 0.007662 0.005419 -0.060000
v 0.008862 0.004529 -0.060000
v 0.007708 0.005418 -0.060000
v 0.007755 0.005415 -0.060000
v 0.007801 0.005409 -0.060000
v 0.007849 0.005402 -0.060000
v 0.007896 0.005392 -0.060000
v 0.007944 0.005381 -0.060000
v 0.007991 0.005367 -0.060000
v 0.008039 0.005351 -0.060000
v 0.008086 0.005334 -0.060000
v 0.008132 0.005314 -0.060000
v 0.008179 0.005292 -0.060000
v 0.008224 0.005269 -0.060000
v 0.008269 0.005244 -0.060000
v 0.008313 0.005217 -0.060000
v 0.008357 0.005188 -0.060000
v 0.008399 0.005158 -0.060000
v 0.008440 0.005127 -0.060000
v 0.008480 0.005094 -0.060000
v 0.008518 0.005059 -0.060000
v 0.008555 0.005023 -0.060000
v 0.008591 0.004987 -0.060000
v 0.008625 0.004949 -0.060000
v 0.008657 0.004910 -0.060000
v 0.008688 0.004870 -0.060000
v 0.008717 0.004829 -0.060000
v 0.008744 0.004787 -0.060000
v 0.008769 0.004745 -0.060000
v 0.008792 0.004703 -0.060000
v 0.008812 0.004660 -0.060000
v 0.008831 0.004616 -0.060000
v 0.008848 0.004573 -0.060000
v 0.008862 0.004529 -0.000000
v 0.007662 0.005419 -0.000000
v 0.008848 0.004573 -0.000000
v 0.008831 0.004616 -0.000000
v 0.008812 0.004660 -0.000000
v 0.008792 0.004703 -0.000000
v 0.008769 0.004745 -0.000000
v 0.008744 0.004787 -0.000000
v 0.008717 0.004829 -0.000000
v 0.008688 0.004870 -0.000000
v 0.008657 0.004910 -0.000000
v 0.008625 0.004949 -0.000000
v 0.008591 0.004987 -0.000000
v 0.008555 0.005023 -0.000000
v 0.008518 0.005059 -0.000000
v 0.008480 0.005094 -0.000000
v 0.008440 0.005127 -0.000000
v 0.008399 0.005158 -0.000000
v 0.008357 0.005188 -0.000000
v 0.008313 0.005217 -0.000000
v 0.008269 0.005244 -0.000000
v 0.008224 0.005269 -0.000000
v 0.008179 0.005292 -0.000000
v 0.008132 0.005314 -0.000000
v 0.008086 0.005334 -0.000000
v 0.008039 0.005351 -0.000000
v 0.007991 0.005367 -0.000000
v 0.007944 0.005381 -0.000000
v 0.007896 0.005392 -0.000000
v 0.007849 0.005402 -0.000000
v 0.007801 0.005409 -0.000000
v 0.007755 0.005415 -0.000000
v 0.007708 0.005418 -0.000000
v -0.008862 0.004529 -0.060000
v -0.007662 0.005419 -0.060000
v -0.008848 0.004573 -0.060000
v -0.008831 0.004616 -0.060000
v -0.008812 0.004660 -0.060000
v -0.008792 0.004703 -0.060000
v -0.008769 0.004745 -0.060000
v -0.008744 0.004787 -0.060000
v -0.008717 0.004829 -0.060000
v -0.008688 0.004870 -0.060000
v -0.008657 0.004910 -0.060000
v -0.008625 0.004949 -0.060000
v -0.008591 0.004987 -0.060000
v -0.008555 0.005023 -0.060000
v -0.008518 0.005059 -0.060000
v -0.008480 0.005094 -0.060000
v -0.008440 0.005127 -0.060000
v -0.008399 0.005158 -0.060000
v -0.008357 0.005188 -0.060000
v -0.008313 0.005217 -0.060000
v -0.008269 0.005244 -0.060000
v -0.008224 0.005269 -0.060000
v -0.008179 0.005292 -0.060000
v -0.008132 0.005314 -0.060000
v -0.008086 0.005334 -0.060000
v -0.008039 0.005351 -0.060000
v -0.007991 0.005367 -0.060000
v -0.007944 0.005381 -0.060000
v -0.007896 0.005392 -0.060000
v -0.007849 0.005402 -0.060000
v -0.007801 0.005409 -0.060000
v -0.007755 0.005415 -0.060000
v -0.007708 0.005418 -0.060000
v -0.007662 0.005419 -0.000000
v -0.008862 0.004529 -0.000000
v -0.007708 0.005418 -0.000000
v -0.007755 0.005415 -0.000000
v -0.007801 0.005409 -0.000000
v -0.007849 0.005402 -0.000000
v -0.007896 0.005392 -0.000000
v -0.007944 0.005381 -0.000000
v -0.007991 0.005367 -0.000000
v -0.008039 0.005351 -0.000000
v -0.008086 0.005334 -0.000000
v -0.008132 0.005314 -0.000000
v -0.008179 0.005292 -0.000000
v -0.008224 0.005269 -0.000000
v -0.008269 0.005244 -0.000000
v -0.008313 0.005217 -0.000000
v -0.008357 0.005188 -0.000000
v -0.008399 0.005158 -0.000000
v -0.008440 0.005127 -0.000000
v -0.008480 0.005094 -0.000000
v -0.008518 0.005059 -0.000000
v -0.008555 0.005023 -0.000000
v -0.008591 0.004987 -0.000000
v -0.008625 0.004949 -0.000000
v -0.008657 0.004910 -0.000000
v -0.008688 0.004870 -0.000000
v -0.008717 0.004829 -0.000000
v -0.008744 0.004787 -0.000000
v -0.008769 0.004745 -0.000000
v -0.008792 0.004703 -0.000000
v -0.008812 0.004660 -0.000000
v -0.008831 0.004616 -0.000000
v -0.008848 0.004573 -0.000000
vt 1.000000 1.000000
vt 0.968750 0.500000
vt 1.000000 0.500000
vt 0.917205 1.000000
vt 0.582795 0.500000
vt 0.917205 0.500000
vt 0.968750 1.000000
vt 0.953441 0.500000
vt 0.531250 1.000000
vt 0.500000 0.500000
vt 0.531250 0.500000
vt 0.500000 1.000000
vt 0.468750 0.500000
vt 0.468750 1.000000
vt 0.437500 0.500000
vt 0.437500 1.000000
vt 0.406250 0.500000
vt 0.406250 1.000000
vt 0.375000 0.500000
vt 0.375000 1.000000
vt 0.343750 0.500000
vt 0.343750 1.000000
vt 0.312500 0.500000
vt 0.312500 1.000000
vt 0.281250 0.500000
vt 0.281250 1.000000
vt 0.250000 0.500000
vt 0.250000 1.000000
vt 0.218750 0.500000
vt 0.218750 1.000000
vt 0.187500 0.500000
vt 0.187500 1.000000
vt 0.156250 0.500000
vt 0.156250 1.000000
vt 0.125000 0.500000
vt 0.125000 1.000000
vt 0.093750 0.500000
vt 0.093750 1.000000
vt 0.062500 0.500000
vt 0.062500 1.000000
vt 0.031250 0.500000
vt 0.031250 1.000000
vt 0.000000 0.500000
vt 0.546559 1.000000
vt 0.546559 0.500000
vt 0.547346 1.000000
vt 0.547346 0.500000
vt 0.548140 1.000000
vt 0.548140 0.500000
vt 0.548939 1.000000
vt 0.548939 0.500000
vt 0.549742 1.000000
vt 0.549742 0.500000
vt 0.550548 1.000000
vt 0.550548 0.500000
vt 0.551355 1.000000
vt 0.551355 0.500000
vt 0.552162 1.000000
vt 0.552162 0.500000
vt 0.552969 1.000000
vt 0.552969 0.500000
vt 0.553775 1.000000
vt 0.553775 0.500000
vt 0.554582 1.000000
vt 0.554582 0.500000
vt 0.555391 1.000000
vt 0.555391 0.500000
vt 0.556204 1.000000
vt 0.556204 0.500000
vt 0.557026 1.000000
vt 0.557026 0.500000
vt 0.557862 1.000000
vt 0.557862 0.500000
vt 0.558718 1.000000
vt 0.558718 0.500000
vt 0.561807 1.000000
vt 0.561807 0.500000
vt 0.565668 1.000000
vt 0.565668 0.500000
vt 0.566765 1.000000
vt 0.566765 0.500000
vt 0.567902 1.000000
vt 0.567902 0.500000
vt 0.569070 1.000000
vt 0.569070 0.500000
vt 0.570259 1.000000
vt 0.570259 0.500000
vt 0.571460 1.000000
vt 0.571460 0.500000
vt 0.572664 1.000000
vt 0.572664 0.500000
vt 0.573865 1.000000
vt 0.573865 0.500000
vt 0.575057 1.000000
vt 0.575057 0.500000
vt 0.576236 1.000000
vt 0.576236 0.500000
vt 0.577397 1.000000
vt 0.577397 0.500000
vt 0.578535 1.000000
vt 0.578535 0.500000
vt 0.579647 1.000000
vt 0.579647 0.500000
vt 0.580730 1.000000
vt 0.580730 0.500000
vt 0.581780 1.000000
vt 0.581780 0.500000
vt 0.582795 1.000000
vt 0.952622 1.000000
vt 0.953441 1.000000
vt 0.950777 1.000000
vt 0.918184 1.000000
vt 0.918184 0.500000
vt 0.919126 1.000000
vt 0.919126 0.500000
vt 0.920033 1.000000
vt 0.920033 0.500000
vt 0.920904 1.000000
vt 0.920904 0.500000
vt 0.921740 1.000000
vt 0.921740 0.500000
vt 0.922544 1.000000
vt 0.922544 0.500000
vt 0.923317 1.000000
vt 0.923317 0.500000
vt 0.924065 1.000000
vt 0.924065 0.500000
vt 0.924793 1.000000
vt 0.924793 0.500000
vt 0.925511 1.000000
vt 0.925511 0.500000
vt 0.926228 1.000000
vt 0.926228 0.500000
vt 0.926962 1.000000
vt 0.926962 0.500000
vt 0.927731 1.000000
vt 0.927731 0.500000
vt 0.928557 1.000000
vt 0.928557 0.500000
vt 0.929462 1.000000
vt 0.929462 0.500000
vt 0.933275 1.000000
vt 0.933275 0.500000
vt 0.936467 1.000000
vt 0.936467 0.500000
vt 0.937564 1.000000
vt 0.937564 0.500000
vt 0.938752 1.000000
vt 0.938752 0.500000
vt 0.940002 1.000000
vt 0.940002 0.500000
vt 0.941287 1.000000
vt 0.941287 0.500000
vt 0.942581 1.000000
vt 0.942581 0.500000
vt 0.943867 1.000000
vt 0.943868 0.500000
vt 0.945130 1.000000
vt 0.945130 0.500000
vt 0.946358 1.000000
vt 0.946358 0.500000
vt 0.947543 1.000000
vt 0.947543 0.500000
vt 0.948678 1.000000
vt 0.948678 0.500000
vt 0.949758 1.000000
vt 0.949758 0.500000
vt 0.950777 0.500000
vt 0.951733 1.000000
vt 0.951733 0.500000
vt 0.952622 0.500000
vt 0.000000 1.000000
vn -0.9952 0.0980 0.0000
vn 0.0000 1.0000 0.0000
vn -0.9569 0.2903 0.0000
vn 0.9952 0.0980 0.0000
vn 0.9952 -0.0980 0.0000
vn 0.9569 -0.2903 0.0000
vn 0.8819 -0.4714 0.0000
vn 0.7730 -0.6344 0.0000
vn 0.6344 -0.7730 0.0000
vn 0.4714 -0.8819 0.0000
vn 0.2903 -0.9569 0.0000
vn 0.0980 -0.9952 0.0000
vn -0.0980 -0.9952 0.0000
vn -0.2903 -0.9569 0.0000
vn -0.4714 -0.8819 0.0000
vn -0.6344 -0.7730 0.0000
vn -0.7730 -0.6344 0.0000
vn -0.8819 -0.4714 0.0000
vn -0.9569 -0.2903 0.0000
vn -0.9952 -0.0980 0.0000
vn 0.9569 0.2903 0.0000
vn 0.9499 0.3125 0.0000
vn 0.9346 0.3556 0.0000
vn 0.9179 0.3967 0.0000
vn 0.8999 0.4362 0.0000
vn 0.8806 0.4738 0.0000
vn 0.8603 0.5098 0.0000
vn 0.8390 0.5441 0.0000
vn 0.8168 0.5769 0.0000
vn 0.7936 0.6084 0.0000
vn 0.7697 0.6384 0.0000
vn 0.7450 0.6670 0.0000
vn 0.7196 0.6944 0.0000
vn 0.6933 0.7206 0.0000
vn 0.6664 0.7456 0.0000
vn 0.6387 0.7695 0.0000
vn 0.6102 0.7922 0.0000
vn 0.5810 0.8139 0.0000
vn 0.5509 0.8346 0.0000
vn 0.5201 0.8541 0.0000
vn 0.4883 0.8727 0.0000
vn 0.4557 0.8902 0.0000
vn 0.4220 0.9066 0.0000
vn 0.3875 0.9219 0.0000
vn 0.3518 0.9361 0.0000
vn 0.3151 0.9491 0.0000
vn 0.2772 0.9608 0.0000
vn 0.2381 0.9712 0.0000
vn 0.1977 0.9803 0.0000
vn 0.1561 0.9877 0.0000
vn 0.1132 0.9936 0.0000
vn 0.0690 0.9976 0.0000
vn 0.0233 0.9997 0.0000
vn 0.0000 0.0000 1.0000
vn -0.0233 0.9997 0.0000
vn -0.0689 0.9976 0.0000
vn -0.1132 0.9936 0.0000
vn -0.1561 0.9877 0.0000
vn -0.1977 0.9803 0.0000
vn -0.2381 0.9712 0.0000
vn -0.2772 0.9608 0.0000
vn -0.3150 0.9491 0.0000
vn -0.3518 0.9361 0.0000
vn -0.3875 0.9219 0.0000
vn -0.4221 0.9066 0.0000
vn -0.4556 0.8902 0.0000
vn -0.4883 0.8727 0.0000
vn -0.5201 0.8541 0.0000
vn -0.5509 0.8345 0.0000
vn -0.5810 0.8139 0.0000
vn -0.6102 0.7922 0.0000
vn -0.6387 0.7695 0.0000
vn -0.6664 0.7456 0.0000
vn -0.6933 0.7206 0.0000
vn -0.7196 0.6944 0.0000
vn -0.7450 0.6670 0.0000
vn -0.7697 0.6384 0.0000
vn -0.7937 0.6084 0.0000
vn -0.8167 0.5770 0.0000
vn -0.8390 0.5442 0.0000
vn -0.8603 0.5098 0.0000
vn -0.8806 0.4738 0.0000
vn -0.8999 0.4361 0.0000
vn -0.9179 0.3968 0.0000
vn -0.9347 0.3556 0.0000
vn -0.9499 0.3125 0.0000
vn -0.0000 0.0000 -1.0000
vn 0.9347 0.3556 0.0000
vn 0.9179 0.3968 0.0000
vn 0.8999 0.4361 0.0000
vn 0.8390 0.5442 0.0000
vn 0.8167 0.5770 0.0000
vn 0.7937 0.6084 0.0000
vn 0.6934 0.7206 0.0000
vn 0.4556 0.8902 0.0000
vn -0.1978 0.9803 0.0000
vn -0.3874 0.9219 0.0000
vn -0.4557 0.8902 0.0000
vn -0.6934 0.7206 0.0000
vn -0.7450 0.6671 0.0000
vn -0.7936 0.6084 0.0000
vn -0.8168 0.5769 0.0000
vn -0.8390 0.5441 0.0000
vn -0.8999 0.4362 0.0000
vn -0.9179 0.3967 0.0000
vn -0.9346 0.3556 0.0000
vn 0.0031 0.0000 -1.0000
vn 0.0018 0.0000 -1.0000
vn -0.0010 0.0000 -1.0000
vn 0.0007 0.0000 -1.0000
vn 0.0003 0.0000 -1.0000
vn -0.0002 0.0000 -1.0000
vn 0.0002 0.0000 -1.0000
vn -0.0003 0.0000 -1.0000
vn -0.0007 0.0000 -1.0000
vn 0.0005 0.0000 -1.0000
vn 0.0008 0.0000 -1.0000
vn -0.0019 0.0000 -1.0000
vn -0.0031 0.0000 -1.0000
usemtl None
s off
f 2/1/1 3/2/1 1/3/1
f 138/4/2 39/5/2 106/6/2
f 4/7/3 105/8/3 3/2/3
f 6/9/4 7/10/4 5/11/4
f 8/12/5 9/13/5 7/10/5
f 10/14/6 11/15/6 9/13/6
f 12/16/7 13/17/7 11/15/7
f 14/18/8 15/19/8 13/17/8
f 16/20/9 17/21/9 15/19/9
f 18/22/10 19/23/10 17/21/10
f 20/24/11 21/25/11 19/23/11
f 22/26/12 23/27/12 21/25/12
f 24/28/13 25/29/13 23/27/13
f 26/30/14 27/31/14 25/29/14
f 28/32/15 29/33/15 27/31/15
f 30/34/16 31/35/16 29/33/16
f 32/36/17 33/37/17 31/35/17
f 34/38/18 35/39/18 33/37/18
f 36/40/19 37/41/19 35/39/19
f 38/42/20 1/43/20 37/41/20
f 72/44/21 5/11/21 40/45/21
f 40/45/22 74/46/22 72/44/22
f 71/47/23 75/48/23 74/46/23
f 70/49/24 76/50/24 75/48/24
f 69/51/25 77/52/25 76/50/25
f 68/53/26 78/54/26 77/52/26
f 67/55/27 79/56/27 78/54/27
f 66/57/28 80/58/28 79/56/28
f 65/59/29 81/60/29 80/58/29
f 64/61/30 82/62/30 81/60/30
f 63/63/31 83/64/31 82/62/31
f 62/65/32 84/66/32 83/64/32
f 61/67/33 85/68/33 84/66/33
f 60/69/34 86/70/34 85/68/34
f 59/71/35 87/72/35 86/70/35
f 58/73/36 88/74/36 87/72/36
f 57/75/37 89/76/37 88/74/37
f 56/77/38 90/78/38 89/76/38
f 55/79/39 91/80/39 90/78/39
f 54/81/40 92/82/40 91/80/40
f 53/83/41 93/84/41 92/82/41
f 52/85/42 94/86/42 93/84/42
f 51/87/43 95/88/43 94/86/43
f 50/89/44 96/90/44 95/88/44
f 49/91/45 97/92/45 96/90/45
f 48/93/46 98/94/46 97/92/46
f 47/95/47 99/96/47 98/94/47
f 46/97/48 100/98/48 99/96/48
f 45/99/49 101/100/49 100/98/49
f 44/101/50 102/102/50 101/100/50
f 43/103/51 103/104/51 102/102/51
f 42/105/52 104/106/52 103/104/52
f 41/107/53 73/108/53 104/106/53
f 170/109/54 139/110/54 168/111/54
f 106/6/55 140/112/55 138/4/55
f 137/113/56 141/114/56 140/112/56
f 136/115/57 142/116/57 141/114/57
f 135/117/58 143/118/58 142/116/58
f 134/119/59 144/120/59 143/118/59
f 133/121/60 145/122/60 144/120/60
f 132/123/61 146/124/61 145/122/61
f 131/125/62 147/126/62 146/124/62
f 130/127/63 148/128/63 147/126/63
f 129/129/64 149/130/64 148/128/64
f 128/131/65 150/132/65 149/130/65
f 127/133/66 151/134/66 150/132/66
f 126/135/67 152/136/67 151/134/67
f 125/137/68 153/138/68 152/136/68
f 124/139/69 154/140/69 153/138/69
f 123/141/70 155/142/70 154/140/70
f 122/143/71 156/144/71 155/142/71
f 121/145/72 157/146/72 156/144/72
f 120/147/73 158/148/73 157/146/73
f 119/149/74 159/150/74 158/148/74
f 118/151/75 160/152/75 159/150/75
f 117/153/76 161/154/76 160/152/76
f 116/155/77 162/156/77 161/154/77
f 115/157/78 163/158/78 162/156/78
f 114/159/79 164/160/79 163/158/79
f 113/161/80 165/162/80 164/160/80
f 112/163/81 166/164/81 165/162/81
f 111/165/82 167/166/82 166/164/82
f 110/167/83 168/111/83 167/166/83
f 109/168/84 169/169/84 168/111/84
f 108/170/85 170/109/85 169/169/85
f 107/171/86 139/110/86 170/109/86
f 106/6/87 35/39/87 37/41/87
f 2/1/1 4/7/1 3/2/1
f 138/4/2 73/108/2 39/5/2
f 4/7/3 139/110/3 105/8/3
f 6/9/4 8/12/4 7/10/4
f 8/12/5 10/14/5 9/13/5
f 10/14/6 12/16/6 11/15/6
f 12/16/7 14/18/7 13/17/7
f 14/18/8 16/20/8 15/19/8
f 16/20/9 18/22/9 17/21/9
f 18/22/10 20/24/10 19/23/10
f 20/24/11 22/26/11 21/25/11
f 22/26/12 24/28/12 23/27/12
f 24/28/13 26/30/13 25/29/13
f 26/30/14 28/32/14 27/31/14
f 28/32/15 30/34/15 29/33/15
f 30/34/16 32/36/16 31/35/16
f 32/36/17 34/38/17 33/37/17
f 34/38/18 36/40/18 35/39/18
f 36/40/19 38/42/19 37/41/19
f 38/42/20 2/172/20 1/43/20
f 72/44/21 6/9/21 5/11/21
f 40/45/22 71/47/22 74/46/22
f 71/47/88 70/49/88 75/48/88
f 70/49/89 69/51/89 76/50/89
f 69/51/90 68/53/90 77/52/90
f 68/53/26 67/55/26 78/54/26
f 67/55/27 66/57/27 79/56/27
f 66/57/91 65/59/91 80/58/91
f 65/59/92 64/61/92 81/60/92
f 64/61/93 63/63/93 82/62/93
f 63/63/31 62/65/31 83/64/31
f 62/65/32 61/67/32 84/66/32
f 61/67/33 60/69/33 85/68/33
f 60/69/94 59/71/94 86/70/94
f 59/71/35 58/73/35 87/72/35
f 58/73/36 57/75/36 88/74/36
f 57/75/37 56/77/37 89/76/37
f 56/77/38 55/79/38 90/78/38
f 55/79/39 54/81/39 91/80/39
f 54/81/40 53/83/40 92/82/40
f 53/83/41 52/85/41 93/84/41
f 52/85/95 51/87/95 94/86/95
f 51/87/43 50/89/43 95/88/43
f 50/89/44 49/91/44 96/90/44
f 49/91/45 48/93/45 97/92/45
f 48/93/46 47/95/46 98/94/46
f 47/95/47 46/97/47 99/96/47
f 46/97/48 45/99/48 100/98/48
f 45/99/49 44/101/49 101/100/49
f 44/101/50 43/103/50 102/102/50
f 43/103/51 42/105/51 103/104/51
f 42/105/52 41/107/52 104/106/52
f 41/107/53 39/5/53 73/108/53
f 139/110/54 4/7/54 138/4/54
f 4/7/54 2/172/54 138/4/54
f 139/110/54 138/4/54 155/142/54
f 2/172/54 38/42/54 138/4/54
f 38/42/54 36/40/54 138/4/54
f 36/40/54 34/38/54 138/4/54
f 34/38/54 32/36/54 138/4/54
f 32/36/54 30/34/54 138/4/54
f 30/34/54 28/32/54 138/4/54
f 28/32/54 26/30/54 138/4/54
f 26/30/54 24/28/54 138/4/54
f 24/28/54 22/26/54 73/108/54
f 22/26/54 20/24/54 73/108/54
f 20/24/54 18/22/54 73/108/54
f 18/22/54 16/20/54 73/108/54
f 16/20/54 14/18/54 73/108/54
f 14/18/54 12/16/54 73/108/54
f 73/108/54 12/16/54 10/14/54
f 10/14/54 8/12/54 73/108/54
f 73/108/54 8/12/54 6/9/54
f 6/9/54 72/44/54 73/108/54
f 73/108/54 72/44/54 89/76/54
f 72/44/54 74/46/54 75/48/54
f 75/48/54 76/50/54 72/44/54
f 76/50/54 77/52/54 72/44/54
f 77/52/54 78/54/54 72/44/54
f 78/54/54 79/56/54 72/44/54
f 79/56/54 80/58/54 72/44/54
f 80/58/54 81/60/54 72/44/54
f 81/60/54 82/62/54 72/44/54
f 82/62/54 83/64/54 72/44/54
f 83/64/54 84/66/54 72/44/54
f 84/66/54 85/68/54 72/44/54
f 85/68/54 86/70/54 72/44/54
f 86/70/54 87/72/54 72/44/54
f 87/72/54 88/74/54 72/44/54
f 88/74/54 89/76/54 72/44/54
f 89/76/54 90/78/54 73/108/54
f 90/78/54 91/80/54 73/108/54
f 91/80/54 92/82/54 73/108/54
f 92/82/54 93/84/54 73/108/54
f 93/84/54 94/86/54 73/108/54
f 94/86/54 95/88/54 73/108/54
f 95/88/54 96/90/54 73/108/54
f 96/90/54 97/92/54 73/108/54
f 97/92/54 98/94/54 73/108/54
f 98/94/54 99/96/54 73/108/54
f 99/96/54 100/98/54 73/108/54
f 100/98/54 101/100/54 73/108/54
f 101/100/54 102/102/54 73/108/54
f 102/102/54 103/104/54 73/108/54
f 103/104/54 104/106/54 73/108/54
f 73/108/54 138/4/54 24/28/54
f 138/4/54 140/112/54 142/116/54
f 140/112/54 141/114/54 142/116/54
f 142/116/54 143/118/54 138/4/54
f 143/118/54 144/120/54 138/4/54
f 144/120/54 145/122/54 138/4/54
f 145/122/54 146/124/54 138/4/54
f 146/124/54 147/126/54 138/4/54
f 147/126/54 148/128/54 138/4/54
f 148/128/54 149/130/54 138/4/54
f 149/130/54 150/132/54 138/4/54
f 150/132/54 151/134/54 138/4/54
f 151/134/54 152/136/54 138/4/54
f 152/136/54 153/138/54 138/4/54
f 153/138/54 154/140/54 138/4/54
f 154/140/54 155/142/54 138/4/54
f 155/142/54 156/144/54 139/110/54
f 156/144/54 157/146/54 139/110/54
f 157/146/54 158/148/54 139/110/54
f 158/148/54 159/150/54 139/110/54
f 159/150/54 160/152/54 139/110/54
f 160/152/54 161/154/54 139/110/54
f 161/154/54 162/156/54 139/110/54
f 162/156/54 163/158/54 139/110/54
f 163/158/54 164/160/54 139/110/54
f 164/160/54 165/162/54 139/110/54
f 165/162/54 166/164/54 139/110/54
f 166/164/54 167/166/54 139/110/54
f 167/166/54 168/111/54 139/110/54
f 168/111/54 169/169/54 170/109/54
f 106/6/55 137/113/55 140/112/55
f 137/113/56 136/115/56 141/114/56
f 136/115/57 135/117/57 142/116/57
f 135/117/58 134/119/58 143/118/58
f 134/119/96 133/121/96 144/120/96
f 133/121/60 132/123/60 145/122/60
f 132/123/61 131/125/61 146/124/61
f 131/125/62 130/127/62 147/126/62
f 130/127/63 129/129/63 148/128/63
f 129/129/97 128/131/97 149/130/97
f 128/131/65 127/133/65 150/132/65
f 127/133/98 126/135/98 151/134/98
f 126/135/67 125/137/67 152/136/67
f 125/137/68 124/139/68 153/138/68
f 124/139/69 123/141/69 154/140/69
f 123/141/70 122/143/70 155/142/70
f 122/143/71 121/145/71 156/144/71
f 121/145/72 120/147/72 157/146/72
f 120/147/73 119/149/73 158/148/73
f 119/149/99 118/151/99 159/150/99
f 118/151/75 117/153/75 160/152/75
f 117/153/100 116/155/100 161/154/100
f 116/155/77 115/157/77 162/156/77
f 115/157/101 114/159/101 163/158/101
f 114/159/102 113/161/102 164/160/102
f 113/161/103 112/163/103 165/162/103
f 112/163/81 111/165/81 166/164/81
f 111/165/82 110/167/82 167/166/82
f 110/167/104 109/168/104 168/111/104
f 109/168/105 108/170/105 169/169/105
f 108/170/106 107/171/106 170/109/106
f 107/171/86 105/8/86 139/110/86
f 37/41/87 1/43/87 106/6/87
f 1/43/87 3/2/87 106/6/87
f 106/6/87 3/2/87 105/8/87
f 105/8/87 107/171/87 109/168/87
f 105/8/87 122/143/87 106/6/87
f 107/171/87 108/170/87 109/168/87
f 109/168/107 110/167/107 105/8/107
f 110/167/87 111/165/87 105/8/87
f 111/165/87 112/163/87 105/8/87
f 112/163/108 113/161/108 105/8/108
f 113/161/87 114/159/87 105/8/87
f 114/159/87 115/157/87 105/8/87
f 115/157/87 116/155/87 105/8/87
f 116/155/87 117/153/87 105/8/87
f 117/153/87 118/151/87 105/8/87
f 118/151/109 119/149/109 105/8/109
f 119/149/87 120/147/87 105/8/87
f 120/147/87 121/145/87 105/8/87
f 121/145/110 122/143/110 105/8/110
f 122/143/87 123/141/87 106/6/87
f 123/141/87 124/139/87 106/6/87
f 124/139/87 125/137/87 106/6/87
f 125/137/87 126/135/87 106/6/87
f 126/135/87 127/133/87 106/6/87
f 127/133/87 128/131/87 106/6/87
f 128/131/87 129/129/87 106/6/87
f 129/129/111 130/127/111 106/6/111
f 130/127/112 131/125/112 106/6/112
f 131/125/87 132/123/87 106/6/87
f 132/123/113 133/121/113 106/6/113
f 133/121/87 134/119/87 106/6/87
f 134/119/87 135/117/87 106/6/87
f 135/117/87 136/115/87 137/113/87
f 137/113/87 106/6/87 135/117/87
f 106/6/87 39/5/87 23/27/87
f 39/5/87 41/107/87 42/105/87
f 42/105/87 43/103/87 39/5/87
f 43/103/87 44/101/87 39/5/87
f 44/101/87 45/99/87 39/5/87
f 45/99/114 46/97/114 39/5/114
f 46/97/87 47/95/87 39/5/87
f 47/95/111 48/93/111 39/5/111
f 48/93/87 49/91/87 39/5/87
f 49/91/112 50/89/112 39/5/112
f 50/89/87 51/87/87 39/5/87
f 51/87/87 52/85/87 39/5/87
f 52/85/87 53/83/87 39/5/87
f 53/83/87 54/81/87 39/5/87
f 54/81/87 55/79/87 39/5/87
f 55/79/87 56/77/87 39/5/87
f 56/77/115 57/75/115 40/45/115
f 57/75/87 58/73/87 40/45/87
f 58/73/87 59/71/87 40/45/87
f 59/71/116 60/69/116 40/45/116
f 60/69/87 61/67/87 40/45/87
f 61/67/87 62/65/87 40/45/87
f 62/65/117 63/63/117 40/45/117
f 63/63/87 64/61/87 40/45/87
f 64/61/87 65/59/87 40/45/87
f 65/59/87 66/57/87 40/45/87
f 66/57/87 67/55/87 40/45/87
f 67/55/118 68/53/118 40/45/118
f 68/53/119 69/51/119 40/45/119
f 69/51/107 70/49/107 40/45/107
f 70/49/87 71/47/87 40/45/87
f 40/45/87 5/11/87 39/5/87
f 5/11/87 7/10/87 39/5/87
f 40/45/87 39/5/87 56/77/87
f 7/10/87 9/13/87 39/5/87
f 9/13/87 11/15/87 39/5/87
f 11/15/87 13/17/87 39/5/87
f 13/17/87 15/19/87 39/5/87
f 15/19/87 17/21/87 39/5/87
f 17/21/87 19/23/87 39/5/87
f 19/23/87 21/25/87 39/5/87
f 21/25/87 23/27/87 39/5/87
f 23/27/87 25/29/87 106/6/87
f 25/29/87 27/31/87 106/6/87
f 106/6/87 27/31/87 29/33/87
f 29/33/87 31/35/87 106/6/87
f 106/6/87 31/35/87 33/37/87
f 33/37/87 35/39/87 106/6/87
