# Blender v2.90.1 OBJ File: 'cpmplex.blend'
# www.blender.org
mtllib peg.mtl
o 立方体.019_立方体.044
v -0.004300 0.002800 -0.060000
v -0.004300 0.002800 0.000000
v -0.004300 0.007200 -0.060000
v -0.004300 0.007200 0.000000
v 0.004300 0.002800 -0.060000
v 0.004300 0.002800 0.000000
v 0.004300 0.007200 -0.060000
v 0.004300 0.007200 0.000000
v -0.009300 -0.007300 -0.060000
v -0.009300 -0.007300 0.000000
v -0.009300 0.001300 -0.060000
v -0.009300 0.001300 0.000000
v 0.009300 -0.007300 -0.060000
v 0.009300 -0.007300 0.000000
v 0.009300 0.001300 -0.060000
v 0.009300 0.001300 0.000000
v -0.006300 -0.000300 -0.060000
v -0.006300 -0.000300 0.000000
v -0.006300 0.004300 -0.060000
v -0.006300 0.004300 0.000000
v 0.006300 -0.000300 -0.060000
v 0.006300 -0.000300 0.000000
v 0.006300 0.004300 -0.060000
v 0.006300 0.004300 0.000000
vt 0.625000 0.000000
vt 0.375000 0.250000
vt 0.375000 0.000000
vt 0.625000 0.250000
vt 0.375000 0.500000
vt 0.625000 0.500000
vt 0.375000 0.750000
vt 0.625000 0.750000
vt 0.375000 1.000000
vt 0.125000 0.750000
vt 0.125000 0.500000
vt 0.875000 0.500000
vt 0.625000 0.000000
vt 0.375000 0.250000
vt 0.375000 0.000000
vt 0.625000 0.250000
vt 0.375000 0.500000
vt 0.625000 0.500000
vt 0.375000 0.750000
vt 0.625000 0.750000
vt 0.375000 1.000000
vt 0.125000 0.750000
vt 0.125000 0.500000
vt 0.875000 0.500000
vt 0.625000 0.000000
vt 0.375000 0.250000
vt 0.375000 0.000000
vt 0.625000 0.250000
vt 0.375000 0.500000
vt 0.625000 0.500000
vt 0.375000 0.750000
vt 0.625000 0.750000
vt 0.375000 1.000000
vt 0.125000 0.750000
vt 0.125000 0.500000
vt 0.875000 0.500000
vt 0.625000 1.000000
vt 0.875000 0.750000
vt 0.625000 1.000000
vt 0.875000 0.750000
vt 0.625000 1.000000
vt 0.875000 0.750000
vn -1.0000 0.0000 0.0000
vn 0.0000 1.0000 0.0000
vn 1.0000 0.0000 0.0000
vn 0.0000 -1.0000 0.0000
vn 0.0000 0.0000 -1.0000
vn 0.0000 0.0000 1.0000
usemtl None
s off
f 2/1/1 3/2/1 1/3/1
f 4/4/2 7/5/2 3/2/2
f 8/6/3 5/7/3 7/5/3
f 6/8/4 1/9/4 5/7/4
f 7/5/5 1/10/5 3/11/5
f 4/12/6 6/8/6 8/6/6
f 10/13/1 11/14/1 9/15/1
f 12/16/2 15/17/2 11/14/2
f 16/18/3 13/19/3 15/17/3
f 14/20/4 9/21/4 13/19/4
f 15/17/5 9/22/5 11/23/5
f 12/24/6 14/20/6 16/18/6
f 18/25/1 19/26/1 17/27/1
f 20/28/2 23/29/2 19/26/2
f 24/30/3 21/31/3 23/29/3
f 22/32/4 17/33/4 21/31/4
f 23/29/5 17/34/5 19/35/5
f 20/36/6 22/32/6 24/30/6
f 2/1/1 4/4/1 3/2/1
f 4/4/2 8/6/2 7/5/2
f 8/6/3 6/8/3 5/7/3
f 6/8/4 2/37/4 1/9/4
f 7/5/5 5/7/5 1/10/5
f 4/12/6 2/38/6 6/8/6
f 10/13/1 12/16/1 11/14/1
f 12/16/2 16/18/2 15/17/2
f 16/18/3 14/20/3 13/19/3
f 14/20/4 10/39/4 9/21/4
f 15/17/5 13/19/5 9/22/5
f 12/24/6 10/40/6 14/20/6
f 18/25/1 20/28/1 19/26/1
f 20/28/2 24/30/2 23/29/2
f 24/30/3 22/32/3 21/31/3
f 22/32/4 18/41/4 17/33/4
f 23/29/5 21/31/5 17/34/5
f 20/36/6 18/42/6 22/32/6
